<?xml version="1.0" encoding="utf-8"?>
<!-- Generator: Adobe Illustrator 19.0.0, SVG Export Plug-In . SVG Version: 6.00 Build 0)  -->
<svg version="1.1" id="Layer_1" xmlns="http://www.w3.org/2000/svg" xmlns:xlink="http://www.w3.org/1999/xlink" x="0px" y="0px"
	 viewBox="0 0 1280 720" style="enable-background:new 0 0 1280 720;" xml:space="preserve">
<g id="XMLID_6_">
	<g id="XMLID_60_">
		<path id="XMLID_100_" d="M515.9,303.1c-3.9-3.9-8.6-5.8-14.1-5.8h-26.9c-0.5,0-0.7,0.2-0.7,0.7v73.4c0,0.5,0.2,0.7,0.7,0.7h3.5
			c0.5,0,0.7-0.2,0.7-0.7v-33.9h22.2c5.7,0,10.5-2,14.6-6c4.1-4,6.1-8.9,6-14.5C521.8,311.6,519.8,306.9,515.9,303.1z M512.5,328.1
			c-3,3-6.6,4.5-10.7,4.5h-22.6v-30.4h22.6c4.2,0,7.8,1.5,10.7,4.5c3,3,4.4,6.5,4.4,10.7C517,321.6,515.5,325.2,512.5,328.1z"/>
		<path id="XMLID_98_" d="M585.9,367.2h-35V298c0-0.4-0.2-0.7-0.7-0.7h-3.5c-0.5,0-0.7,0.2-0.7,0.7v73.5c0,0.5,0.2,0.7,0.7,0.7h39.2
			c0.5,0,0.7-0.2,0.7-0.7v-3.5C586.7,367.4,586.4,367.2,585.9,367.2z"/>
		<path id="XMLID_96_" d="M651.8,297.4h-3.5c-0.5,0-0.7,0.2-0.7,0.7v49.5c0,5.5-2,10.2-6,14.1c-4,3.9-8.8,5.7-14.4,5.5
			c-5.2-0.2-9.7-2.3-13.4-6.2c-3.6-3.9-5.4-8.5-5.4-13.9v-49c0-0.5-0.2-0.7-0.7-0.7h-3.4c-0.5,0-0.7,0.2-0.7,0.7v48.9
			c0,6.7,2.3,12.5,6.9,17.4c4.6,4.9,10.2,7.5,16.8,7.7c6.9,0.2,12.9-2.1,17.9-6.9c4.9-4.8,7.4-10.7,7.4-17.6v-49.5
			C652.5,297.7,652.3,297.4,651.8,297.4z"/>
		<path id="XMLID_94_" d="M716.7,297.4h-47c-0.5,0-0.7,0.2-0.7,0.7v3.5c0,0.5,0.2,0.7,0.7,0.7h21v69.1c0,0.5,0.2,0.7,0.7,0.7h3.5
			c0.5,0,0.7-0.2,0.7-0.7v-69.1h21c0.5,0,0.7-0.2,0.7-0.7v-3.5C717.4,297.6,717.2,297.4,716.7,297.4z"/>
		<path id="XMLID_90_" d="M781.4,367.2h-42.5v4.9h42.5c0.5,0,0.7-0.2,0.7-0.7V368C782.2,367.5,781.9,367.2,781.4,367.2z
			 M781.4,297.4h-42.5v5h42.5c0.5,0,0.7-0.2,0.7-0.7v-3.5C782.2,297.7,781.9,297.4,781.4,297.4z M768,336.5v-3.4
			c0-0.5-0.2-0.7-0.7-0.7h-28.3v4.9h28.3C767.7,337.3,768,337,768,336.5z"/>
		<path id="XMLID_61_" d="M867,320.2c-1.9-4.5-4.5-8.4-8-11.9c-3.5-3.4-7.4-6.1-11.9-8c-4.6-2-9.5-3-14.6-3c-5.1,0-9.9,1-14.6,3
			c-4.4,1.9-8.4,4.5-11.9,8c-3.4,3.5-6.1,7.4-8,11.9c-1.9,4.6-2.9,9.5-2.9,14.6c0,5.1,1,9.9,2.9,14.6c1.9,4.5,4.6,8.4,8,11.9
			c3.5,3.4,7.4,6.1,11.9,8c4.6,1.9,9.5,2.9,14.6,2.9c5.1,0,9.9-1,14.6-2.9c4.4-1.9,8.4-4.6,11.9-8c3.4-3.5,6.1-7.4,8-11.9
			c2-4.6,3-9.5,3-14.6C870,329.7,869,324.8,867,320.2z M862.5,347.4c-1.6,3.9-3.9,7.3-6.9,10.3c-3,3-6.4,5.3-10.3,6.9
			c-4,1.7-8.3,2.6-12.6,2.6c-4.4,0-8.6-0.8-12.6-2.6c-3.9-1.6-7.3-3.9-10.3-6.9c-3-3-5.3-6.4-6.9-10.3c-1.7-4-2.6-8.3-2.6-12.6
			c0-4.4,0.9-8.6,2.6-12.6c1.6-3.9,3.9-7.3,6.9-10.3c3-3,6.4-5.3,10.3-6.9c4-1.7,8.3-2.6,12.6-2.6c4.4,0,8.6,0.9,12.6,2.6
			c3.9,1.6,7.3,4,10.3,6.9c3,3,5.3,6.4,6.9,10.3c1.7,4,2.6,8.2,2.6,12.6C865,339.1,864.2,343.3,862.5,347.4z"/>
	</g>
	<g id="XMLID_35_">
		<path id="XMLID_57_" d="M482.9,396.6h-6.7v9.6h-0.8v-20.6h7.5c4.2,0,6.1,2.7,6.1,5.5S487.1,396.6,482.9,396.6z M476.2,385.8v10.5
			h6.3c4.4,0,5.7-2.8,5.7-5.3c0-2.4-1.3-5.3-5.7-5.3H476.2z"/>
		<path id="XMLID_55_" d="M529.7,385.5h10.7v0.3h-9.9v8.7h8.8v0.3h-8.8v11.1h10.1v0.3h-11V385.5z"/>
		<path id="XMLID_52_" d="M589.8,396.3c1.6,0.5,2.7,2,3.7,4.5l2.1,5.4h-0.9l-2.4-6.2c-0.8-2.1-2.2-3.7-4.5-3.7h-5.8v9.9h-0.8v-20.6
			h7.5c4.2,0,6.1,2.7,6.1,5.4C594.8,393.4,593.2,395.8,589.8,396.3z M581.9,385.8v10.2h6.3c4.4,0,5.7-2.7,5.7-5.1s-1.3-5.1-5.7-5.1
			H581.9z"/>
		<path id="XMLID_50_" d="M636,385.5h10.7v0.3h-9.9v8.7h8.8v0.3h-8.8v11.4H636V385.5z"/>
		<path id="XMLID_48_" d="M687.4,385.5h0.8v14.9c0,3.5,2.8,5.8,6.3,5.8c4,0,6.1-2.8,6.1-5.8v-14.8h0.3v14.6c0,3.4-2.1,6.3-6.7,6.3
			c-3.7,0-6.8-2-6.8-6.4V385.5z"/>
		<path id="XMLID_46_" d="M742.5,385.5h0.8l8.4,19.6l8.4-19.6h0.7v20.6h-0.8v-19.6l-8.4,19.6h-0.3l-8.5-19.8v19.8h-0.3V385.5z"/>
		<path id="XMLID_44_" d="M802.5,385.5h10.7v0.3h-9.9v8.7h8.8v0.3h-8.8v11.1h10.1v0.3h-11V385.5z"/>
		<path id="XMLID_42_" d="M859.4,385.3c3.4,0,5.7,2.1,6.3,2.9l-0.4,1.2c-0.6-1.1-2.8-3.8-6.2-3.8c-2.4,0-4.6,1.3-4.6,3.8
			c0,5.7,11.8,6,11.8,12.4c0,2.8-2.2,4.7-5.8,4.7c-3.4,0-5.9-1.7-6.9-2.8l0.4-1.2c0.7,1.2,3.3,3.7,6.7,3.7c2.5,0,4.7-1.3,4.7-4.1
			c0-6.4-11.8-6.8-11.8-12.4C853.6,386.9,856.4,385.3,859.4,385.3z"/>
	</g>
	<path id="XMLID_36_" d="M441,337.7c3.7,4,7.5,8,11.4,12.1c-3.8,4-7.6,8-11.4,12.1c8.5,11,13.5,23.1,12.1,37.1
		c-1.3,12.6-8.4,23.3-14.4,29.7c-14.2-14.3-24-39.5-2.9-67c-2.8-2.9-5.6-5.9-8.5-8.9c-10.5,8.9-22,14.2-36,12.2
		c-9.4-1.4-21.7-8.3-27.2-15.1c12.8-13.6,37-25.6,63.4-3.1c2.8-3,5.5-6,8.3-9c-21.2-27.2-11.1-52.5,2.7-67
		C451.9,284.5,462.4,310.1,441,337.7z M424,349.8c-17.9-16-38.3-14.2-53.7,0.1C387.1,364.7,407.2,365,424,349.8z M438.4,277.3
		c-14.9,18.3-13.7,39.8,0,56.3C452.2,316.8,453,294.8,438.4,277.3z M438.3,365.8c-6.7,8.3-12.2,20.9-10.4,33.3
		c1.3,8.6,4.9,16.2,10.4,23.1C452.7,405.3,452.5,383.1,438.3,365.8z M446.5,349.7c-2.8-2.9-5.4-5.7-8.1-8.6
		c-2.8,2.9-5.5,5.7-8.2,8.6c2.8,2.9,5.5,5.8,8.2,8.7c0.3-0.2,0.5-0.3,0.6-0.5C441.5,355.2,443.9,352.5,446.5,349.7z"/>
</g>
</svg>
