<?xml version="1.0" encoding="utf-8"?>
<!-- Generator: Adobe Illustrator 19.0.0, SVG Export Plug-In . SVG Version: 6.00 Build 0)  -->
<svg version="1.1" id="Layer_1" xmlns="http://www.w3.org/2000/svg" xmlns:xlink="http://www.w3.org/1999/xlink" x="0px" y="0px"
	 viewBox="0 0 1280 720" style="enable-background:new 0 0 1280 720;" xml:space="preserve">
<style type="text/css">
	.st0{fill:#FFFFFF;}
</style>
<rect id="XMLID_34_" class="st0" width="1277" height="720"/>
<path id="XMLID_62_" d="M694.2,580.1c-24.9,23.4-50,47-75.6,71.2c-25.3-23.8-50.5-47.4-76.1-71.4c-69.3,53.2-144.7,84.6-232.6,75.6
	c-78.7-8-146.3-52.6-186.5-90.6c89.5-88.9,247.8-150.7,420-18.4c18.4-17.4,36.9-34.9,56.1-53c-55.7-65.7-89.3-138-76.2-225.5
	c8.8-58.7,52.2-135.8,95-170.5c85.2,80,160.6,232.2,19.5,397.3c18.8,17.3,37.6,34.6,56.2,51.8c170.8-132.9,329.2-69.9,420,16.6
	C1027.8,648.4,867.3,714,694.2,580.1z M618.6,472.9c100-112.3,88.9-240.1-0.7-336.7C524.9,242.2,523.3,368.2,618.6,472.9z
	 M1072.7,563.4c-114.8-93.5-249.5-86-353.2-0.1C825.4,650.2,963.3,655,1072.7,563.4z M518.2,562.9c-51.8-42-131.2-76.4-209-65
	c-54.2,7.9-101.7,30.6-144.5,65.2C270.4,653.1,409.7,652.1,518.2,562.9z M618.7,614.2c18.4-17.4,36-34,53.7-50.7
	c-18.3-17.5-35.9-34.2-53.8-51.3c-18.2,17.3-36.1,34.2-54.3,51.5c1.3,1.6,2.2,3,3.3,4C584.4,583,601.2,598.2,618.7,614.2z"/>
</svg>
