<?xml version="1.0" encoding="utf-8"?>
<!-- Generator: Adobe Illustrator 24.1.2, SVG Export Plug-In . SVG Version: 6.00 Build 0)  -->
<svg version="1.1" id="Layer_1" xmlns="http://www.w3.org/2000/svg" xmlns:xlink="http://www.w3.org/1999/xlink" x="0px" y="0px"
	 viewBox="0 0 1280 720" style="enable-background:new 0 0 1280 720;" xml:space="preserve">
<style type="text/css">
	.st0{fill:#FFFFFF;}
	.st1{fill:#6C534E;}
</style>
<rect id="XMLID_34_" class="st0" width="1277" height="720"/>
<g id="XMLID_7_">
	<path id="XMLID_27_" class="st1" d="M468.95,368.43c-4.84-4.8-10.68-7.2-17.51-7.2h-33.39c-0.62,0-0.9,0.31-0.9,0.9v91.22
		c0,0.62,0.29,0.92,0.9,0.92h4.35c0.59,0,0.9-0.31,0.9-0.92v-42.14h27.56c7.03,0,13.08-2.48,18.15-7.44
		c5.05-5.02,7.55-11.01,7.44-17.97C476.34,379.02,473.84,373.23,468.95,368.43z M464.79,399.54c-3.71,3.73-8.16,5.58-13.35,5.58
		H423.3v-37.8h28.14c5.19,0,9.64,1.87,13.35,5.58c3.69,3.67,5.52,8.12,5.52,13.35C470.31,391.44,468.48,395.87,464.79,399.54z"/>
	<path id="XMLID_25_" class="st1" d="M556.01,448.11h-43.5v-86.03c0-0.55-0.31-0.84-0.9-0.84h-4.35c-0.62,0-0.92,0.29-0.92,0.84
		v91.28c0,0.62,0.31,0.92,0.92,0.92h48.75c0.62,0,0.9-0.31,0.9-0.92v-4.33C556.91,448.42,556.63,448.11,556.01,448.11z"/>
	<path id="XMLID_23_" class="st1" d="M637.9,361.42h-4.35c-0.62,0-0.92,0.31-0.92,0.92v61.46c0,6.87-2.48,12.69-7.44,17.49
		c-4.96,4.84-10.91,7.14-17.84,6.87c-6.52-0.25-12.08-2.83-16.65-7.71c-4.49-4.84-6.75-10.58-6.75-17.25v-60.87
		c0-0.62-0.31-0.92-0.9-0.92h-4.29c-0.59,0-0.9,0.31-0.9,0.92v60.81c0,8.35,2.85,15.55,8.55,21.6c5.76,6.09,12.74,9.27,20.94,9.54
		c8.61,0.25,16-2.63,22.19-8.63c6.13-6.01,9.21-13.29,9.21-21.84v-61.46C638.74,361.73,638.45,361.42,637.9,361.42z"/>
	<path id="XMLID_21_" class="st1" d="M718.48,361.36h-58.37c-0.59,0-0.9,0.31-0.9,0.9v4.35c0,0.62,0.31,0.9,0.9,0.9h26.13v85.85
		c0,0.62,0.29,0.92,0.86,0.92h4.33c0.62,0,0.92-0.31,0.92-0.92v-85.85h26.13c0.59,0,0.9-0.29,0.9-0.9v-4.35
		C719.38,361.67,719.07,361.36,718.48,361.36z"/>
	<path id="XMLID_16_" class="st1" d="M798.93,448.17h-52.79v6.11h52.79c0.59,0,0.9-0.31,0.9-0.92v-4.27
		C799.83,448.48,799.53,448.17,798.93,448.17z M798.93,361.42h-52.79v6.17h52.79c0.59,0,0.9-0.31,0.9-0.92v-4.33
		C799.83,361.73,799.53,361.42,798.93,361.42z M782.2,409.98v-4.27c0-0.62-0.31-0.92-0.9-0.92h-35.15v6.11h35.15
		C781.89,410.91,782.2,410.6,782.2,409.98z"/>
	<path id="XMLID_9_" class="st1" d="M905.31,389.7c-2.34-5.54-5.64-10.46-9.93-14.79c-4.31-4.29-9.25-7.59-14.77-9.93
		c-5.76-2.46-11.79-3.69-18.11-3.69c-6.3,0-12.33,1.23-18.09,3.69c-5.52,2.34-10.46,5.64-14.77,9.93
		c-4.29,4.33-7.61,9.25-9.99,14.79c-2.42,5.74-3.63,11.77-3.63,18.09c0,6.32,1.21,12.35,3.63,18.09c2.38,5.54,5.7,10.46,9.99,14.79
		c4.31,4.27,9.25,7.61,14.77,9.99c5.76,2.42,11.79,3.63,18.09,3.63c6.32,0,12.35-1.21,18.11-3.63c5.52-2.38,10.46-5.72,14.77-9.99
		c4.29-4.33,7.59-9.25,9.93-14.79c2.46-5.74,3.69-11.77,3.69-18.09C909,401.47,907.77,395.44,905.31,389.7z M899.67,423.48
		c-2.03,4.84-4.9,9.13-8.61,12.84c-3.73,3.71-8,6.58-12.84,8.61c-5.02,2.13-10.25,3.18-15.71,3.18c-5.43,0-10.66-1.05-15.69-3.18
		c-4.84-2.03-9.11-4.9-12.84-8.61c-3.71-3.71-6.58-8-8.61-12.84c-2.11-5.02-3.18-10.25-3.18-15.69c0-5.46,1.07-10.68,3.18-15.69
		c2.03-4.84,4.9-9.13,8.61-12.84c3.73-3.71,8-6.6,12.84-8.63c5.02-2.11,10.25-3.18,15.69-3.18c5.46,0,10.68,1.07,15.71,3.18
		c4.84,2.03,9.11,4.92,12.84,8.63c3.71,3.71,6.58,8,8.61,12.84c2.11,5,3.18,10.23,3.18,15.69
		C902.85,413.22,901.78,418.45,899.67,423.48z"/>
</g>
<g id="XMLID_69_">
	<path id="XMLID_71_" class="st1" d="M426.47,489.45h-8.05v11.48h-0.99v-24.75h9.01c5.08,0,7.36,3.23,7.36,6.63
		C433.8,486.21,431.52,489.45,426.47,489.45z M418.42,476.51v12.61h7.59c5.28,0,6.8-3.37,6.8-6.3s-1.52-6.3-6.8-6.3H418.42z"/>
	<path id="XMLID_74_" class="st1" d="M482.63,476.18h12.81v0.33h-11.82v10.4h10.5v0.33h-10.5v13.37h12.15v0.33h-13.14V476.18z"/>
	<path id="XMLID_76_" class="st1" d="M554.73,489.02c1.95,0.59,3.2,2.34,4.39,5.41l2.51,6.5h-1.09l-2.94-7.43
		c-0.99-2.51-2.67-4.39-5.41-4.39h-6.93v11.82h-0.99v-24.75h9.01c5.02,0,7.36,3.2,7.36,6.5
		C560.64,485.65,558.76,488.49,554.73,489.02z M545.26,476.51v12.28h7.59c5.25,0,6.8-3.27,6.8-6.11s-1.55-6.17-6.8-6.17H545.26z"/>
	<path id="XMLID_79_" class="st1" d="M610.13,476.18h12.81v0.33h-11.82v10.4h10.5v0.33h-10.5v13.7h-0.99V476.18z"/>
	<path id="XMLID_81_" class="st1" d="M671.76,476.18h0.99v17.85c0,4.22,3.3,6.9,7.59,6.9c4.82,0,7.26-3.33,7.26-7v-17.76h0.33v17.49
		c0,4.13-2.57,7.59-7.99,7.59c-4.46,0-8.19-2.34-8.19-7.66V476.18z"/>
	<path id="XMLID_83_" class="st1" d="M737.75,476.18h0.96l10.07,23.5l10.03-23.5h0.82v24.75h-0.99V477.4l-10.03,23.53h-0.36
		l-10.17-23.76v23.76h-0.33V476.18z"/>
	<path id="XMLID_85_" class="st1" d="M809.78,476.18h12.8v0.33h-11.81v10.4h10.49v0.33h-10.49v13.37h12.14v0.33h-13.14V476.18z"/>
	<path id="XMLID_87_" class="st1" d="M878.02,475.85c4.06,0,6.86,2.51,7.56,3.43l-0.53,1.45c-0.69-1.29-3.37-4.55-7.43-4.55
		c-2.84,0-5.54,1.58-5.54,4.55c0,6.83,14.16,7.2,14.16,14.92c0,3.3-2.61,5.61-6.93,5.61c-4.09,0-7.13-2.04-8.22-3.33l0.53-1.45
		c0.82,1.45,3.96,4.45,8.05,4.45c3,0,5.58-1.62,5.58-4.88c0-7.69-14.16-8.12-14.16-14.92C871.09,477.83,874.39,475.85,878.02,475.85
		z"/>
</g>
<path id="XMLID_117_" class="st1" d="M685.73,299.74c-5.52,5.2-11.09,10.44-16.78,15.8c-5.62-5.28-11.2-10.52-16.88-15.85
	c-15.37,11.8-32.1,18.77-51.62,16.78c-17.47-1.78-32.47-11.68-41.38-20.1c19.85-19.73,54.99-33.44,93.21-4.09
	c4.08-3.85,8.19-7.74,12.45-11.76c-12.35-14.58-19.83-30.62-16.91-50.04c1.96-13.03,11.59-30.14,21.07-37.84
	c18.91,17.75,35.64,51.53,4.32,88.16c4.17,3.84,8.34,7.69,12.48,11.5c37.91-29.49,73.05-15.51,93.2,3.69
	C759.77,314.9,724.15,329.46,685.73,299.74z M668.97,275.96c22.2-24.92,19.73-53.28-0.16-74.71
	C648.17,224.75,647.8,252.71,668.97,275.96z M769.72,296.05c-25.48-20.74-55.38-19.08-78.38-0.02
	C714.86,315.31,745.45,316.36,769.72,296.05z M646.67,295.92c-11.49-9.32-29.11-16.96-46.39-14.43
	c-12.03,1.76-22.57,6.8-32.08,14.47C591.69,315.95,622.59,315.72,646.67,295.92z M668.98,307.3c4.09-3.87,8-7.56,11.91-11.25
	c-4.07-3.88-7.96-7.59-11.95-11.39c-4.04,3.84-8.01,7.6-12.05,11.43c0.3,0.36,0.49,0.66,0.74,0.89
	C661.36,300.38,665.09,303.77,668.98,307.3z"/>
</svg>
