<?xml version="1.0" encoding="utf-8"?>
<!-- Generator: Adobe Illustrator 19.0.0, SVG Export Plug-In . SVG Version: 6.00 Build 0)  -->
<svg version="1.1" id="Layer_1" xmlns="http://www.w3.org/2000/svg" xmlns:xlink="http://www.w3.org/1999/xlink" x="0px" y="0px"
	 viewBox="0 0 1280 720" style="enable-background:new 0 0 1280 720;" xml:space="preserve">
<style type="text/css">
	.st0{fill:#FFFFFF;}
</style>
<rect id="XMLID_34_" class="st0" width="1277" height="720"/>
<g id="XMLID_7_">
	<path id="XMLID_27_" d="M469,368.4c-4.8-4.8-10.7-7.2-17.5-7.2h-33.4c-0.6,0-0.9,0.3-0.9,0.9v91.2c0,0.6,0.3,0.9,0.9,0.9h4.3
		c0.6,0,0.9-0.3,0.9-0.9v-42.1h27.6c7,0,13.1-2.5,18.1-7.4c5-5,7.5-11,7.4-18C476.3,379,473.8,373.2,469,368.4z M464.8,399.5
		c-3.7,3.7-8.2,5.6-13.4,5.6h-28.1v-37.8h28.1c5.2,0,9.6,1.9,13.4,5.6c3.7,3.7,5.5,8.1,5.5,13.4
		C470.3,391.4,468.5,395.9,464.8,399.5z"/>
	<path id="XMLID_25_" d="M556,448.1h-43.5v-86c0-0.6-0.3-0.8-0.9-0.8h-4.3c-0.6,0-0.9,0.3-0.9,0.8v91.3c0,0.6,0.3,0.9,0.9,0.9H556
		c0.6,0,0.9-0.3,0.9-0.9V449C556.9,448.4,556.6,448.1,556,448.1z"/>
	<path id="XMLID_23_" d="M637.9,361.4h-4.3c-0.6,0-0.9,0.3-0.9,0.9v61.5c0,6.9-2.5,12.7-7.4,17.5c-5,4.8-10.9,7.1-17.8,6.9
		c-6.5-0.2-12.1-2.8-16.7-7.7c-4.5-4.8-6.7-10.6-6.7-17.2v-60.9c0-0.6-0.3-0.9-0.9-0.9h-4.3c-0.6,0-0.9,0.3-0.9,0.9v60.8
		c0,8.3,2.9,15.5,8.6,21.6c5.8,6.1,12.7,9.3,20.9,9.5c8.6,0.2,16-2.6,22.2-8.6c6.1-6,9.2-13.3,9.2-21.8v-61.5
		C638.7,361.7,638.5,361.4,637.9,361.4z"/>
	<path id="XMLID_21_" d="M718.5,361.4h-58.4c-0.6,0-0.9,0.3-0.9,0.9v4.3c0,0.6,0.3,0.9,0.9,0.9h26.1v85.8c0,0.6,0.3,0.9,0.9,0.9h4.3
		c0.6,0,0.9-0.3,0.9-0.9v-85.8h26.1c0.6,0,0.9-0.3,0.9-0.9v-4.3C719.4,361.7,719.1,361.4,718.5,361.4z"/>
	<path id="XMLID_16_" d="M798.9,448.2h-52.8v6.1h52.8c0.6,0,0.9-0.3,0.9-0.9v-4.3C799.8,448.5,799.5,448.2,798.9,448.2z
		 M798.9,361.4h-52.8v6.2h52.8c0.6,0,0.9-0.3,0.9-0.9v-4.3C799.8,361.7,799.5,361.4,798.9,361.4z M782.2,410v-4.3
		c0-0.6-0.3-0.9-0.9-0.9h-35.2v6.1h35.2C781.9,410.9,782.2,410.6,782.2,410z"/>
	<path id="XMLID_9_" d="M905.3,389.7c-2.3-5.5-5.6-10.5-9.9-14.8c-4.3-4.3-9.2-7.6-14.8-9.9c-5.8-2.5-11.8-3.7-18.1-3.7
		c-6.3,0-12.3,1.2-18.1,3.7c-5.5,2.3-10.5,5.6-14.8,9.9c-4.3,4.3-7.6,9.2-10,14.8c-2.4,5.7-3.6,11.8-3.6,18.1
		c0,6.3,1.2,12.3,3.6,18.1c2.4,5.5,5.7,10.5,10,14.8c4.3,4.3,9.2,7.6,14.8,10c5.8,2.4,11.8,3.6,18.1,3.6c6.3,0,12.3-1.2,18.1-3.6
		c5.5-2.4,10.5-5.7,14.8-10c4.3-4.3,7.6-9.2,9.9-14.8c2.5-5.7,3.7-11.8,3.7-18.1C909,401.5,907.8,395.4,905.3,389.7z M899.7,423.5
		c-2,4.8-4.9,9.1-8.6,12.8c-3.7,3.7-8,6.6-12.8,8.6c-5,2.1-10.3,3.2-15.7,3.2c-5.4,0-10.7-1-15.7-3.2c-4.8-2-9.1-4.9-12.8-8.6
		c-3.7-3.7-6.6-8-8.6-12.8c-2.1-5-3.2-10.3-3.2-15.7c0-5.5,1.1-10.7,3.2-15.7c2-4.8,4.9-9.1,8.6-12.8c3.7-3.7,8-6.6,12.8-8.6
		c5-2.1,10.3-3.2,15.7-3.2c5.5,0,10.7,1.1,15.7,3.2c4.8,2,9.1,4.9,12.8,8.6c3.7,3.7,6.6,8,8.6,12.8c2.1,5,3.2,10.2,3.2,15.7
		C902.8,413.2,901.8,418.5,899.7,423.5z"/>
</g>
<g id="XMLID_69_">
	<path id="XMLID_71_" d="M426.5,489.4h-8.1v11.5h-1v-24.8h9c5.1,0,7.4,3.2,7.4,6.6C433.8,486.2,431.5,489.4,426.5,489.4z
		 M418.4,476.5v12.6h7.6c5.3,0,6.8-3.4,6.8-6.3s-1.5-6.3-6.8-6.3H418.4z"/>
	<path id="XMLID_74_" d="M482.6,476.2h12.8v0.3h-11.8v10.4h10.5v0.3h-10.5v13.4h12.1v0.3h-13.1V476.2z"/>
	<path id="XMLID_76_" d="M554.7,489c1.9,0.6,3.2,2.3,4.4,5.4l2.5,6.5h-1.1l-2.9-7.4c-1-2.5-2.7-4.4-5.4-4.4h-6.9v11.8h-1v-24.8h9
		c5,0,7.4,3.2,7.4,6.5C560.6,485.7,558.8,488.5,554.7,489z M545.3,476.5v12.3h7.6c5.2,0,6.8-3.3,6.8-6.1s-1.6-6.2-6.8-6.2H545.3z"/>
	<path id="XMLID_79_" d="M610.1,476.2h12.8v0.3h-11.8v10.4h10.5v0.3h-10.5v13.7h-1V476.2z"/>
	<path id="XMLID_81_" d="M671.8,476.2h1V494c0,4.2,3.3,6.9,7.6,6.9c4.8,0,7.3-3.3,7.3-7v-17.8h0.3v17.5c0,4.1-2.6,7.6-8,7.6
		c-4.5,0-8.2-2.3-8.2-7.7V476.2z"/>
	<path id="XMLID_83_" d="M737.8,476.2h1l10.1,23.5l10-23.5h0.8v24.8h-1v-23.5l-10,23.5h-0.4l-10.2-23.8v23.8h-0.3V476.2z"/>
	<path id="XMLID_85_" d="M809.8,476.2h12.8v0.3h-11.8v10.4h10.5v0.3h-10.5v13.4h12.1v0.3h-13.1V476.2z"/>
	<path id="XMLID_87_" d="M878,475.9c4.1,0,6.9,2.5,7.6,3.4l-0.5,1.5c-0.7-1.3-3.4-4.6-7.4-4.6c-2.8,0-5.5,1.6-5.5,4.6
		c0,6.8,14.2,7.2,14.2,14.9c0,3.3-2.6,5.6-6.9,5.6c-4.1,0-7.1-2-8.2-3.3l0.5-1.5c0.8,1.5,4,4.5,8.1,4.5c3,0,5.6-1.6,5.6-4.9
		c0-7.7-14.2-8.1-14.2-14.9C871.1,477.8,874.4,475.9,878,475.9z"/>
</g>
<path id="XMLID_117_" d="M685.7,299.7c-5.5,5.2-11.1,10.4-16.8,15.8c-5.6-5.3-11.2-10.5-16.9-15.9c-15.4,11.8-32.1,18.8-51.6,16.8
	c-17.5-1.8-32.5-11.7-41.4-20.1c19.9-19.7,55-33.4,93.2-4.1c4.1-3.9,8.2-7.7,12.4-11.8c-12.4-14.6-19.8-30.6-16.9-50
	c2-13,11.6-30.1,21.1-37.8c18.9,17.8,35.6,51.5,4.3,88.2c4.2,3.8,8.3,7.7,12.5,11.5c37.9-29.5,73-15.5,93.2,3.7
	C759.8,314.9,724.2,329.5,685.7,299.7z M669,276c22.2-24.9,19.7-53.3-0.2-74.7C648.2,224.8,647.8,252.7,669,276z M769.7,296
	c-25.5-20.7-55.4-19.1-78.4,0C714.9,315.3,745.5,316.4,769.7,296z M646.7,295.9c-11.5-9.3-29.1-17-46.4-14.4
	c-12,1.8-22.6,6.8-32.1,14.5C591.7,316,622.6,315.7,646.7,295.9z M669,307.3c4.1-3.9,8-7.6,11.9-11.3c-4.1-3.9-8-7.6-11.9-11.4
	c-4,3.8-8,7.6-12,11.4c0.3,0.4,0.5,0.7,0.7,0.9C661.4,300.4,665.1,303.8,669,307.3z"/>
</svg>
